PathFileType	4	(X/Y/Z)	s11c0302.trc
DataRate	CameraRate	NumFrames	NumMarkers	Units	OrigDataRate	OrigDataStartFrame	OrigNumFrames
200	200	6	48	mm	200	1500	2000
Frame#	Time	racr			lacr			c7			jug			rlel			rdr			llel			ldr			s2			lic			ric			lasi			rasi			rpsi			lpsi			rgt			lgt			rth1			rth2			rth3			rth4			rlfc			rmfc			rsh1			rsh2			rsh3			rsh4			rlmal			rcal			rtoe			rmt5			lth1			lth2			lth4			lth3			llfc			lmfc			llmal			lcal			lmt5			lsh1			lsh2			lsh3			lsh4			ltoe			SBIKE			LBIKE			RBIKE			
		X1	Y1	Z1	X2	Y2	Z2	X3	Y3	Z3	X4	Y4	Z4	X5	Y5	Z5	X6	Y6	Z6	X7	Y7	Z7	X8	Y8	Z8	X9	Y9	Z9	X10	Y10	Z10	X11	Y11	Z11	X12	Y12	Z12	X13	Y13	Z13	X14	Y14	Z14	X15	Y15	Z15	X16	Y16	Z16	X17	Y17	Z17	X18	Y18	Z18	X19	Y19	Z19	X20	Y20	Z20	X21	Y21	Z21	X22	Y22	Z22	X23	Y23	Z23	X24	Y24	Z24	X25	Y25	Z25	X26	Y26	Z26	X27	Y27	Z27	X28	Y28	Z28	X29	Y29	Z29	X30	Y30	Z30	X31	Y31	Z31	X32	Y32	Z32	X33	Y33	Z33	X34	Y34	Z34	X35	Y35	Z35	X36	Y36	Z36	X37	Y37	Z37	X38	Y38	Z38	X39	Y39	Z39	X40	Y40	Z40	X41	Y41	Z41	X42	Y42	Z42	X43	Y43	Z43	X44	Y44	Z44	X45	Y45	Z45	X46	Y46	Z46	X47	Y47	Z47	X48	Y48	Z48	
1500	7.5000	754.566422	1368.044689	-45.225785	798.588351	1362.453848	-368.219977	752.419610	1447.061599	-219.150554	702.356915	1262.306748	-217.154416	644.467086	1126.074518	69.682848	790.139519	935.954546	-60.783819	656.796095	1167.677785	-584.539784	794.433714	921.148499	-476.466660	145.044075	1315.351571	-297.308735	386.284132	1256.796840	-455.425913	337.507707	1320.407195	-64.495229	396.814501	1189.843827	-406.159075	363.817559	1249.754988	-98.347859	193.492291	1388.541311	-250.993300	204.209835	1371.276867	-344.589718	291.982840	1202.090612	-38.571814	245.556870	1152.759880	-467.475197	407.803239	1114.859636	-23.880732	490.929786	1082.310095	-26.808251	546.617035	1013.975753	-32.818089	509.884551	1110.734882	-39.716964	631.977507	951.078877	-44.685887	648.202616	936.404045	-177.267683	544.850664	816.251065	-44.390653	507.882643	739.790642	-68.692341	436.597647	689.809016	-77.343215	531.239657	727.895403	-98.403887	332.856991	591.560777	-100.562935	273.130391	618.877208	-150.721824	475.276725	413.650073	-153.538564	405.762236	436.573876	-82.744817	267.749956	1023.699840	-477.408869	296.274907	944.138768	-470.331290	332.711817	946.434154	-465.547624	280.521339	855.651037	-464.498362	285.340496	713.052752	-444.658557	310.318316	697.710071	-317.631296	86.129879	330.498769	-420.031169	25.381459	330.059535	-383.680555	164.699918	176.137556	-454.089024	221.742997	603.515232	-462.804292	207.025053	520.035685	-450.175557	151.215045	451.907276	-442.825102	238.597025	508.884256	-431.259823	259.745565	145.371435	-387.478178	-215.270508	952.296178	-256.797842	-17.897337	80.964775	-460.927512	-17.908864	81.235967	-62.082262	
1501	7.5050	754.183454	1363.462681	-43.492691	798.769711	1361.570628	-364.809495	753.161644	1445.277124	-216.166540	701.180367	1261.328766	-215.773762	642.851406	1123.459620	71.108455	789.522563	936.162491	-60.230454	657.738058	1168.961168	-583.351208	794.273873	920.754273	-475.912585	145.962874	1319.606409	-296.864518	386.460038	1260.939705	-456.228943	338.059343	1322.824489	-64.936276	396.628905	1193.304616	-407.045823	363.858419	1251.874006	-98.673813	194.240915	1393.185652	-250.033800	205.337469	1375.637754	-343.273693	291.344218	1204.877259	-39.086123	246.039751	1156.091265	-468.266886	406.077660	1116.169727	-24.752010	488.805022	1082.475835	-28.478456	543.536686	1013.376525	-34.883121	508.228657	1110.692672	-41.306589	628.296290	947.939000	-46.685863	644.355366	934.255798	-179.774849	543.055176	813.087766	-45.995218	506.801852	735.590911	-69.904625	437.030444	684.612822	-77.660132	529.952063	724.214216	-99.439522	335.007196	583.620070	-100.392626	273.530390	608.790798	-149.903083	483.888356	411.497098	-153.503408	413.563543	431.622035	-82.524400	271.183152	1026.311493	-478.397510	301.670868	947.351294	-471.552881	337.995905	950.565525	-466.698270	288.105741	858.776663	-466.595801	294.451631	716.440845	-447.501218	319.017100	701.031259	-320.802797	84.492625	340.123134	-420.632643	24.083556	341.454918	-383.705676	157.681184	182.698702	-453.713291	227.431147	608.526823	-465.314779	210.531931	525.865131	-452.364739	152.736283	459.100504	-444.204377	241.633626	512.969377	-432.634555	251.391736	148.127663	-387.363337	-215.161549	952.392206	-256.580710	-17.914778	81.082690	-460.892316	-17.909112	81.302089	-62.060393	
1502	7.5100	753.788533	1358.859377	-41.872070	798.794140	1360.142249	-361.364601	753.966312	1443.316080	-213.262144	700.076843	1260.309724	-214.470155	641.471318	1120.535267	72.271887	788.965059	936.228056	-59.542630	658.409709	1169.951385	-582.280465	794.953514	921.475903	-477.750839	147.181740	1323.936544	-296.327967	386.440602	1265.189799	-456.790492	339.167163	1325.031751	-65.004789	396.471174	1196.943745	-408.064424	363.930033	1253.656973	-98.867196	195.507340	1397.301951	-248.837221	206.486510	1379.832772	-341.853294	290.671462	1207.507568	-39.722069	246.533514	1159.549544	-469.074256	404.077440	1116.990601	-25.710058	486.245307	1082.050353	-30.256039	539.857583	1012.065894	-37.088731	506.090294	1110.072391	-43.012208	624.209438	944.351298	-48.932616	639.734512	930.798650	-182.315081	540.509336	809.081117	-47.607240	505.570837	730.647954	-70.660737	436.575524	678.487644	-77.886770	528.803732	719.531176	-100.253081	336.494082	575.024021	-100.077452	273.584114	597.575084	-149.255549	491.866908	409.113868	-153.378537	420.811892	425.901446	-82.339140	274.965359	1028.910208	-479.385658	307.510196	950.798697	-472.803362	343.764022	954.862950	-467.740874	296.310534	861.749613	-468.651898	304.469926	719.967422	-450.198821	328.405362	704.608237	-323.878777	84.014304	350.283386	-421.592784	23.986125	353.475040	-383.971670	151.220887	189.360163	-453.271372	233.849833	613.931517	-467.962423	214.773448	531.862393	-454.464286	155.211848	466.746784	-445.733585	245.553103	518.287689	-434.765349	243.194548	150.998375	-387.278016	-215.067413	952.502879	-256.315764	-17.886167	81.304939	-460.833892	-17.891539	81.365944	-62.042850	
1503	7.5150	753.347619	1354.266585	-40.345309	798.722711	1358.262015	-358.101811	754.846503	1441.355637	-210.523205	699.053585	1259.300363	-213.319346	639.600385	1117.743875	73.572649	788.040739	936.134706	-59.207681	658.702892	1170.762985	-581.184812	794.978791	921.299074	-477.737270	148.262058	1328.093530	-295.317003	386.219432	1269.518192	-457.272894	340.569246	1327.149959	-64.471707	396.389361	1200.354444	-409.125067	363.947658	1255.137751	-98.784631	196.837410	1401.217320	-247.380621	207.833725	1383.941568	-340.606734	290.111226	1209.830867	-40.195471	246.939590	1162.830632	-469.606325	402.022149	1117.255587	-27.542469	483.355750	1080.901774	-32.151272	535.659252	1010.000090	-39.355703	503.245316	1108.947447	-44.398458	619.758210	940.623366	-51.432533	634.628165	926.465202	-184.843938	537.103765	804.328433	-49.122124	503.389785	725.271280	-71.482111	435.538932	671.444869	-78.030634	527.908016	714.069978	-100.746199	337.373905	565.488943	-99.828636	273.146316	585.588271	-148.391068	499.143174	406.230102	-153.062944	427.406050	419.920027	-81.990038	279.054756	1031.469579	-480.351378	313.843524	954.213179	-474.059982	349.875193	959.210807	-468.632057	305.083435	864.915260	-470.770537	315.186563	723.693651	-452.959829	338.137965	708.345934	-327.098003	84.594349	360.742774	-422.861561	24.985496	365.963531	-384.762893	145.147676	196.170608	-453.021472	240.953030	619.658290	-470.675984	219.725745	538.132357	-456.613400	158.474479	474.688964	-447.473839	250.177046	523.975025	-436.796874	235.353464	153.972858	-387.242385	-214.914660	952.607014	-256.003721	-17.899064	81.470369	-460.766319	-17.838549	81.394511	-62.040371	
1504	7.5200	752.894213	1349.952601	-38.786542	798.485435	1355.868714	-354.905947	755.607415	1439.120835	-207.248242	698.117832	1258.351303	-212.397118	637.615326	1115.024785	74.883090	786.517851	936.086933	-58.974946	658.912183	1171.316568	-580.241333	794.619856	921.147443	-477.546961	149.023462	1332.386676	-294.031424	385.787643	1273.585602	-457.624110	341.336623	1328.586441	-64.580692	396.102748	1203.390075	-410.888349	363.678574	1256.404747	-98.549190	198.325866	1405.108351	-245.838400	209.318673	1387.896265	-339.535520	289.481315	1211.945732	-40.750416	247.340338	1165.996889	-470.095713	399.655772	1117.406457	-29.336984	480.178581	1079.068682	-34.845783	531.035570	1007.299240	-41.615856	502.279708	1106.641720	-46.761411	614.979775	936.134511	-54.225200	628.823409	921.285457	-187.172814	533.223954	798.429692	-50.718290	500.815304	718.671495	-72.392735	433.822698	663.699492	-78.393084	525.325898	707.580540	-101.755611	337.635215	555.272656	-99.529585	272.349192	572.591071	-147.692567	505.649558	402.824068	-152.492081	433.347600	413.232689	-81.563677	283.527166	1034.009982	-481.264300	320.478607	957.765629	-475.276405	356.334618	963.711107	-469.383016	314.282438	868.191143	-472.919996	326.366410	727.615627	-455.653734	347.977639	711.745908	-329.799580	85.936609	371.405660	-424.430355	27.185842	378.350416	-385.402699	139.704982	203.299497	-452.867422	248.734171	625.543809	-473.244583	225.410554	544.717795	-458.701750	162.545556	482.888750	-449.358995	255.435535	529.324985	-438.153314	227.806236	157.332719	-387.316244	-214.776596	952.736794	-255.656494	-17.849184	81.699759	-460.679485	-17.816468	81.434323	-61.992839	
1505	7.5250	752.399023	1345.719224	-38.194082	798.155511	1353.172538	-352.138576	756.532860	1437.324264	-204.853712	697.158849	1257.759693	-211.337157	635.555726	1112.475385	76.066291	786.096398	936.193413	-57.922979	658.628078	1171.665399	-579.308627	794.244916	920.991755	-477.331658	150.138787	1336.371195	-293.015315	385.178035	1277.643741	-457.973664	342.399650	1329.723340	-64.109010	395.714890	1205.632438	-413.285599	363.872181	1256.724443	-99.365399	198.916772	1409.139147	-242.733716	211.011932	1391.007160	-337.304979	288.935823	1213.574889	-41.172246	247.772336	1169.037644	-470.491306	397.142323	1116.575444	-30.335871	476.749236	1076.388867	-37.421296	525.956792	1003.768986	-43.728895	499.326751	1103.977562	-48.155289	609.642545	931.182150	-57.068191	622.580296	915.294374	-189.533678	528.924885	791.509746	-52.288946	497.711026	711.064701	-73.332975	431.890660	655.171579	-78.968715	522.191869	700.356971	-102.911660	337.638921	544.735591	-99.110380	271.230315	558.468461	-147.461976	511.340812	399.046559	-151.746044	438.460466	405.943668	-80.966226	288.250107	1036.631636	-482.255089	327.396237	961.441046	-476.514180	362.952522	968.283427	-470.003879	323.798414	871.730718	-475.047956	337.920537	731.640967	-458.176303	359.410571	715.369484	-332.884334	87.916779	382.018042	-426.315979	29.720685	390.811788	-386.476105	134.679117	210.633215	-452.645196	257.085133	631.640742	-475.718625	231.686027	551.353024	-460.696140	167.256523	491.292835	-451.460398	261.221237	535.431259	-440.072714	220.570078	160.916394	-386.926357	-214.650155	952.810765	-255.347641	-17.824889	81.908754	-460.568632	-17.785186	81.437726	-61.970440	
